<svg
                                    aria-label="verified-icon" class="sc-9c65691d-0 cuRIUG sc-10a5570d-8 kxjtCy"
                                    fill="none" viewBox="0 0 43 46">
                                    <path clip-rule="evenodd"
                                        d="M23.6741 2.0787C22.3933 0.494275 19.9777 0.494276 18.6969 2.0787L16.932 4.26193C16.1363 5.24636 14.835 5.66918 13.6126 5.3405L10.9015 4.61157C8.93402 4.08257 6.97973 5.50245 6.87485 7.5371L6.73034 10.3407C6.66518 11.6049 5.86095 12.7118 4.67879 13.1644L2.05704 14.1682C0.154385 14.8967 -0.592088 17.1941 0.519004 18.9018L2.05002 21.255C2.74036 22.316 2.74036 23.6842 2.05002 24.7453L0.519003 27.0984C-0.592088 28.8061 0.154384 31.1035 2.05704 31.832L4.67879 32.8358C5.86095 33.2884 6.66518 34.3954 6.73034 35.6595L6.87485 38.4631C6.97973 40.4978 8.93402 41.9177 10.9015 41.3887L13.6126 40.6597C14.835 40.3311 16.1363 40.7539 16.932 41.7383L18.6969 43.9215C19.9777 45.506 22.3933 45.506 23.6741 43.9215L25.4389 41.7383C26.2347 40.7539 27.536 40.3311 28.7584 40.6597L31.4695 41.3887C33.4369 41.9177 35.3912 40.4978 35.4961 38.4631L35.6406 35.6595C35.7058 34.3953 36.51 33.2884 37.6922 32.8358L40.3139 31.832C42.2166 31.1035 42.963 28.8061 41.8519 27.0984L40.3209 24.7453C39.6306 23.6842 39.6306 22.316 40.3209 21.255L41.8519 18.9018C42.963 17.1941 42.2166 14.8967 40.3139 14.1682L37.6922 13.1644C36.51 12.7118 35.7058 11.6049 35.6406 10.3407L35.4961 7.53709C35.3912 5.50244 33.4369 4.08257 31.4695 4.61157L28.7584 5.3405C27.536 5.66918 26.2347 5.24636 25.4389 4.26193L23.6741 2.0787ZM32.8789 17.6449L29.9646 14.7307L18.6075 26.0878L14.1075 21.5878L11.1933 24.5021L18.6075 31.9163L32.8789 17.6449Z"
                                        fill="white" fill-rule="evenodd"></path>
                                </svg>